<svg xmlns="http://www.w3.org/2000/svg" viewBox="0 0 223.28 30.03"><defs><style>.cls-1,.cls-4,.cls-6{font-size:6.1px;}.cls-1,.cls-4,.cls-6,.cls-9{font-family:Lato-Black, Lato;font-weight:800;}.cls-2{letter-spacing:-0.02em;}.cls-3{letter-spacing:0em;}.cls-10,.cls-4,.cls-6{fill:#6d6d6d;}.cls-5{letter-spacing:-0.02em;}.cls-6{letter-spacing:-0.03em;}.cls-7{letter-spacing:-0.08em;}.cls-8{letter-spacing:-0.1em;}.cls-9{font-size:7px;fill:#fff;}.cls-11{fill:none;stroke:#000;stroke-miterlimit:10;}</style></defs><title>Asset 20</title><g id="Layer_2" data-name="Layer 2"><g id="Layer_1-2" data-name="Layer 1"><path d="M18.74,10.58a4,4,0,0,1-4-4,4,4,0,0,1,6.9-2.85,3.94,3.94,0,0,1,1.18,2.86,4,4,0,0,1-4,4Z"/><path d="M18.75,3A3.55,3.55,0,1,1,15.2,6.53,3.55,3.55,0,0,1,18.75,3h0m0-1a4.55,4.55,0,0,0,0,9.09h0a4.55,4.55,0,0,0,0-9.09Z"/><text class="cls-1" transform="translate(0 20.96) rotate(0.04)">KERAN<tspan class="cls-2" x="20.98" y="0">J</tspan><tspan class="cls-3" x="23.45" y="0">ANG</tspan></text><text class="cls-4" transform="translate(184.61 21.59) rotate(0.04)"><tspan class="cls-5">K</tspan><tspan x="4.27" y="0">ONFIRMASI</tspan><tspan x="0" y="7.32">PEMESANAN</tspan></text><text class="cls-6" transform="translate(126.32 21.93) rotate(0.04)">D<tspan class="cls-7" x="4.35" y="0">AT</tspan><tspan class="cls-3" x="11.52" y="0">A DIRI</tspan></text><text class="cls-4" transform="translate(59 21.01) rotate(0.04)">PEMB<tspan class="cls-8" x="17.08" y="0">AY</tspan><tspan x="24.48" y="0">ARAN </tspan></text><text class="cls-9" transform="matrix(1.07, 0, 0, 1, 16.42, 8.87)">1</text><path d="M18.75,1.47a5.07,5.07,0,1,1-5.07,5.06,5.07,5.07,0,0,1,5.07-5.06h0m0-1a6.07,6.07,0,0,0,0,12.13h0a6.07,6.07,0,1,0,0-12.13Z"/><circle class="cls-10" cx="79.26" cy="6.07" r="4.54"/><text class="cls-9" transform="matrix(1.07, 0, 0, 1, 76.94, 8.4)">2</text><path class="cls-10" d="M79.27,1A5.07,5.07,0,1,1,74.2,6.06,5,5,0,0,1,79.27,1h0m0-1a6.07,6.07,0,0,0,0,12.13h0A6.07,6.07,0,1,0,79.27,0Z"/><circle class="cls-10" cx="139.78" cy="6.11" r="4.54"/><text class="cls-9" transform="matrix(1.07, 0, 0, 1, 137.46, 8.44)">3</text><path class="cls-10" d="M139.79,1a5.07,5.07,0,1,1-5.07,5.06A5.07,5.07,0,0,1,139.79,1h0m0-1a6.07,6.07,0,0,0,0,12.13h0a6.07,6.07,0,0,0,0-12.13Z"/><circle class="cls-10" cx="202.85" cy="6.66" r="4.54"/><text class="cls-9" transform="matrix(1.07, 0, 0, 1, 200.53, 8.99)">4</text><path class="cls-10" d="M202.85,1.59a5.07,5.07,0,1,1-5.07,5.06,5.07,5.07,0,0,1,5.07-5.06h0m0-1a6.07,6.07,0,1,0,0,12.13h0a6.07,6.07,0,0,0,0-12.13Z"/><line class="cls-11" x1="26.09" y1="6.58" x2="71.6" y2="6.61"/><line class="cls-11" x1="86.61" y1="6.62" x2="132.12" y2="6.65"/><line class="cls-11" x1="147.64" y1="6.66" x2="193.15" y2="6.69"/></g></g></svg>