<svg xmlns="http://www.w3.org/2000/svg" viewBox="0 0 222.77 29.93"><defs><style>.cls-1,.cls-2,.cls-6{fill:#6d6d6d;}.cls-2,.cls-6,.cls-8{font-size:6.1px;}.cls-10,.cls-2,.cls-6,.cls-8{font-family:Lato-Black, Lato;font-weight:800;}.cls-3{letter-spacing:-0.02em;}.cls-4{letter-spacing:0em;}.cls-5{letter-spacing:-0.02em;}.cls-6{letter-spacing:-0.03em;}.cls-7{letter-spacing:-0.08em;}.cls-9{letter-spacing:-0.1em;}.cls-10{font-size:7px;fill:#fff;}.cls-11{fill:none;stroke:#000;stroke-miterlimit:10;}</style></defs><title>2</title><g id="Layer_2" data-name="Layer 2"><g id="Layer_1-2" data-name="Layer 1"><circle class="cls-1" cx="18.23" cy="6.57" r="4.04"/><path class="cls-1" d="M18.23,3a3.55,3.55,0,1,1-3.55,3.55A3.55,3.55,0,0,1,18.23,3m0-1a4.55,4.55,0,1,0,4.54,4.55A4.55,4.55,0,0,0,18.23,2Z"/><text class="cls-2" transform="translate(0 21.01)">KERAN<tspan class="cls-3" x="20.98" y="0">J</tspan><tspan class="cls-4" x="23.45" y="0">ANG</tspan></text><text class="cls-2" transform="translate(184.1 21.52)"><tspan class="cls-5">K</tspan><tspan x="4.27" y="0">ONFIRMASI</tspan><tspan x="0" y="7.32">PEMESANAN</tspan></text><text class="cls-6" transform="translate(125.81 21.9)">D<tspan class="cls-7" x="4.35" y="0">AT</tspan><tspan class="cls-4" x="11.52" y="0">A DIRI</tspan></text><text class="cls-8" transform="translate(58.49 21.03)">PEMB<tspan class="cls-9" x="17.08" y="0">AY</tspan><tspan x="24.48" y="0">ARAN </tspan></text><text class="cls-10" transform="translate(15.9 8.91) scale(1.07 1)">1</text><path class="cls-1" d="M18.23,1.51a5.07,5.07,0,1,1-5.07,5.07,5.07,5.07,0,0,1,5.07-5.07m0-1a6.07,6.07,0,1,0,6.06,6.07A6.06,6.06,0,0,0,18.23.51Z"/><circle cx="78.75" cy="6.07" r="4.54"/><text class="cls-10" transform="translate(76.43 8.4) scale(1.07 1)">2</text><path d="M78.75,1a5.07,5.07,0,1,1-5.07,5.07A5.07,5.07,0,0,1,78.75,1m0-1a6.07,6.07,0,1,0,6.06,6.07A6.07,6.07,0,0,0,78.75,0Z"/><circle class="cls-1" cx="139.27" cy="6.07" r="4.54"/><text class="cls-10" transform="translate(136.95 8.4) scale(1.07 1)">3</text><path class="cls-1" d="M139.27,1a5.07,5.07,0,1,1-5.07,5.07A5.07,5.07,0,0,1,139.27,1m0-1a6.07,6.07,0,1,0,6.06,6.07A6.07,6.07,0,0,0,139.27,0Z"/><circle class="cls-1" cx="202.33" cy="6.58" r="4.54"/><text class="cls-10" transform="translate(200.01 8.91) scale(1.07 1)">4</text><path class="cls-1" d="M202.33,1.51a5.07,5.07,0,1,1-5.07,5.07,5.08,5.08,0,0,1,5.07-5.07m0-1a6.07,6.07,0,1,0,6.07,6.07A6.07,6.07,0,0,0,202.33.51Z"/><line class="cls-11" x1="25.57" y1="6.61" x2="71.09" y2="6.61"/><line class="cls-11" x1="86.09" y1="6.61" x2="131.61" y2="6.61"/><line class="cls-11" x1="147.12" y1="6.61" x2="192.63" y2="6.61"/></g></g></svg>