<svg xmlns="http://www.w3.org/2000/svg" viewBox="0 0 223.27 29.93"><defs><style>.cls-1,.cls-2{fill:#6d6d6d;}.cls-2,.cls-6{font-size:6.1px;}.cls-2,.cls-6,.cls-9{font-family:Lato-Black, Lato;font-weight:800;}.cls-3{letter-spacing:-0.02em;}.cls-4{letter-spacing:0em;}.cls-5{letter-spacing:-0.02em;}.cls-6{letter-spacing:-0.03em;}.cls-7{letter-spacing:-0.08em;}.cls-8{letter-spacing:-0.1em;}.cls-9{font-size:7px;fill:#fff;}.cls-10{fill:none;stroke:#000;stroke-miterlimit:10;}</style></defs><title>3</title><g id="Layer_2" data-name="Layer 2"><g id="Layer_1-2" data-name="Layer 1"><path class="cls-1" d="M18.73,10.62a4,4,0,1,1,4-4A4.05,4.05,0,0,1,18.73,10.62Z"/><path class="cls-1" d="M18.73,3a3.55,3.55,0,1,1-3.54,3.55A3.54,3.54,0,0,1,18.73,3m0-1a4.55,4.55,0,1,0,4.54,4.55A4.55,4.55,0,0,0,18.73,2Z"/><text class="cls-2" transform="translate(0 21.01)">KERAN<tspan class="cls-3" x="20.98" y="0">J</tspan><tspan class="cls-4" x="23.45" y="0">ANG</tspan></text><text class="cls-2" transform="translate(184.61 21.52)"><tspan class="cls-5">K</tspan><tspan x="4.27" y="0">ONFIRMASI</tspan><tspan x="0" y="7.32">PEMESANAN</tspan></text><text class="cls-6" transform="translate(126.32 21.9)">D<tspan class="cls-7" x="4.35" y="0">AT</tspan><tspan class="cls-4" x="11.52" y="0">A DIRI</tspan></text><text class="cls-2" transform="translate(59 21.03)">PEMB<tspan class="cls-8" x="17.08" y="0">AY</tspan><tspan x="24.48" y="0">ARAN </tspan></text><text class="cls-9" transform="translate(16.41 8.91) scale(1.07 1)">1</text><path class="cls-1" d="M18.73,1.51a5.07,5.07,0,1,1-5.06,5.07,5.07,5.07,0,0,1,5.06-5.07m0-1A6.07,6.07,0,1,0,24.8,6.58,6.06,6.06,0,0,0,18.73.51Z"/><circle class="cls-1" cx="79.25" cy="6.07" r="4.54"/><text class="cls-9" transform="translate(76.93 8.4) scale(1.07 1)">2</text><path class="cls-1" d="M79.25,1a5.07,5.07,0,1,1-5.06,5.07A5.07,5.07,0,0,1,79.25,1m0-1a6.07,6.07,0,1,0,6.07,6.07A6.06,6.06,0,0,0,79.25,0Z"/><circle cx="139.77" cy="6.07" r="4.54"/><text class="cls-9" transform="translate(137.45 8.4) scale(1.07 1)">3</text><path d="M139.77,1a5.07,5.07,0,1,1-5.06,5.07A5.07,5.07,0,0,1,139.77,1m0-1a6.07,6.07,0,1,0,6.07,6.07A6.06,6.06,0,0,0,139.77,0Z"/><circle class="cls-1" cx="202.84" cy="6.58" r="4.54"/><text class="cls-9" transform="translate(200.52 8.91) scale(1.07 1)">4</text><path class="cls-1" d="M202.84,1.51a5.07,5.07,0,1,1-5.07,5.07,5.07,5.07,0,0,1,5.07-5.07m0-1a6.07,6.07,0,1,0,6.06,6.07A6.07,6.07,0,0,0,202.84.51Z"/><line class="cls-10" x1="26.08" y1="6.61" x2="71.59" y2="6.61"/><line class="cls-10" x1="86.6" y1="6.61" x2="132.11" y2="6.61"/><line class="cls-10" x1="147.63" y1="6.61" x2="193.14" y2="6.61"/></g></g></svg>