<svg xmlns="http://www.w3.org/2000/svg" viewBox="0 0 1839.81 1839.81"><defs><style>.cls-1{fill:#fff;}.cls-2{fill:#171c26;}.cls-3{fill:#231f20;}.cls-4{fill:#58595b;}.cls-5{fill:#939598;}.cls-6{fill:#a7a9ac;}.cls-7{font-size:192.5px;font-family:BebasNeue-Regular, Bebas Neue;}</style></defs><title>BGlogo</title><g id="Layer_2" data-name="Layer 2"><g id="Layer_1-2" data-name="Layer 1"><rect class="cls-1" width="1839.81" height="1839.81"/><path class="cls-1" d="M760.36,783.49c1.09,3.13-2.91,7.65-9.93,12l-.75.46-.57.34-.34.2c6.43-4.19,10-8.44,9-11.42-.94-2.69-5.44-3.82-11.9-3.45-.23-.45-.46-.89-.7-1.32l-2,.28c.69-.11,1.36-.2,2-.28C753.35,779.34,759.28,780.37,760.36,783.49Z"/><line class="cls-2" x1="724.87" y1="780.89" x2="724.87" y2="780.9"/><path class="cls-3" d="M792.36,803.15l0-.13c-3.29,1.68-6.71,3.38-10.19,5.09C785.71,806.4,789.07,804.85,792.36,803.15Z"/><path class="cls-3" d="M855.59,749.87c-4-11.39-36.23-11.42-82.54-2.17l-4.91,1c-1.21.24-2.45.52-3.7.79-3.72.8-7.52,1.66-11.39,2.56-2.6.62-5.22,1.25-7.86,1.91-2.86.71-5.75,1.46-8.67,2.22-3.76,1-7.57,2-11.45,3.08l-2,.55c-2.09.57-4.19,1.18-6.3,1.78-2.27.66-4.51,1.32-6.8,2-1.74.5-3.5,1-5.26,1.58q-11.13,3.38-22.61,7.2l-5.28,1.77-.16.06c-1.44.48-2.89,1-4.35,1.49s-3,1-4.56,1.57-3,1.07-4.54,1.61-2.91,1-4.33,1.54l-.16.06-5.23,1.91q-11.33,4.16-22.16,8.47c-1.71.68-3.42,1.35-5.1,2-2.22.88-4.38,1.77-6.57,2.67-2,.84-4,1.68-6,2.53l-1.92.83c-3.72,1.56-7.32,3.14-10.87,4.72-2.75,1.23-5.49,2.45-8.16,3.67-2.47,1.13-4.94,2.28-7.33,3.41q-5.38,2.55-10.5,5.1c-1.15.56-2.29,1.12-3.38,1.68L567,819.8c-42,21.63-67.16,41.76-63.18,53.15s36.22,11.4,82.54,2.17v0a112.47,112.47,0,0,1-8.7-15.16h0v0c-10.88,0-17.77-1.91-19.22-6.06s2.72-10,11.24-16.75v0c.58-.44,1.16-.9,1.76-1.35s1.24-.91,1.88-1.39c1.27-.95,2.65-1.9,4.08-2.85.73-.47,1.45-1,2.2-1.45s1.52-1,2.33-1.47c2.37-1.49,4.87-3,7.54-4.53.85-.51,1.73-1,2.63-1.5s1.89-1.06,2.87-1.58,1.92-1.07,2.9-1.57a5.53,5.53,0,0,0,.51-.28q5.66-3,11.94-6A616.18,616.18,0,0,1,735,769.41q6.8-1.55,13.1-2.72a5.53,5.53,0,0,0,.57-.09c1.08-.22,2.17-.42,3.24-.58s2.16-.36,3.23-.55,2-.34,3-.47c3-.46,5.94-.84,8.72-1.16.93-.12,1.84-.22,2.74-.3s1.77-.14,2.63-.24c1.71-.15,3.38-.26,5-.32l2.34-.08c.75,0,1.49,0,2.22,0v0c10.89,0,17.78,1.94,19.23,6.08s-2.72,10-11.25,16.72v0h0A112.83,112.83,0,0,1,792.41,803h0C834.38,781.36,859.57,761.24,855.59,749.87ZM542.35,875.92c-16.57,2-28.51-.08-30.7-6.38s5.86-15.42,20-24.27l1.51-.93c.37-.23.76-.46,1.15-.69l.69-.4c-13,8.45-20.17,17-18.08,23,1.89,5.41,11,7.7,24,7,.46.9.93,1.79,1.4,2.66,1.32-.17,2.68-.36,4.06-.56C545,875.56,543.67,875.75,542.35,875.92Z"/><path class="cls-4" d="M732.31,800.18c-.11-.66-.21-1.31-.34-2s-.28-1.39-.44-2.08h0a53.4,53.4,0,0,0-3.76-10.75h0c-.29-.63-.61-1.25-.93-1.87s-.66-1.21-1-1.8q-1-1.8-2.18-3.48s0,0,0,0a53.24,53.24,0,0,0-97.07,34s0,0,0,0q.14,2,.46,4.08c.11.67.22,1.35.35,2s.28,1.36.44,2h0a53.41,53.41,0,0,0,3.76,10.75h0c.3.64.62,1.27.95,1.9s.63,1.17,1,1.75l0,.05c.68,1.19,1.4,2.34,2.16,3.45l2.31-.47,1.74-.37c1.75-.38,3.54-.78,5.37-1.21l3.7-.9,4.08-1c1.77-.46,3.56-.94,5.39-1.45l1-.26,3-.84,3.2-.95,2.48-.74q5.24-1.59,10.65-3.39l2.49-.83.08,0,2-.7,2.15-.74,2.14-.76,2-.73.08,0,2.46-.9q5.34-2,10.44-4l2.4-1,3.09-1.26,2.84-1.19.9-.39c1.75-.74,3.45-1.48,5.12-2.23,1.3-.58,2.58-1.15,3.84-1.73l3.45-1.61q2.53-1.2,4.95-2.4c.54-.26,1.08-.53,1.59-.79l2.1-1.07c-.1-1.34-.25-2.69-.46-4C732.31,800.22,732.32,800.21,732.31,800.18Z"/><circle class="cls-5" cx="649.58" cy="800.65" r="8.37" transform="translate(-225.43 255.34) rotate(-19.02)"/><circle class="cls-6" cx="642.47" cy="789.56" r="3.94" transform="translate(-222.2 252.42) rotate(-19.02)"/><circle class="cls-6" cx="636.65" cy="798.72" r="1.88" transform="translate(-206.02 1375.94) rotate(-85.85)"/><path class="cls-3" d="M766.23,781.11c-1.94-5.53-17.63-5.54-40.16-1h0a4.52,4.52,0,0,1,.33.5,1.94,1.94,0,0,1,.14.22A49.09,49.09,0,0,1,730,786.9l.11.22a1,1,0,0,0,.09.19l.08.15c5.3,0,8.65.93,9.36,2.95s-1.33,4.86-5.47,8.15h0l-.86.65-.91.69c-.62.46-1.29.92-2,1.39l-1.06.7c-.36.24-.74.49-1.13.72-1.16.72-2.37,1.46-3.68,2.2-.41.26-.84.49-1.28.74l-1.39.77c-.46.26-.93.51-1.41.76l-.25.14c-1.82,1-3.76,2-5.8,2.94a300.87,300.87,0,0,1-60.68,21.23q-3.31.76-6.38,1.32a1.17,1.17,0,0,0-.27.06c-.53.1-1.06.2-1.58.28l-1.57.27c-.5.08-1,.16-1.46.22-1.48.23-2.89.41-4.24.57-.45.05-.9.1-1.33.14l-1.28.12c-.84.07-1.65.14-2.43.16l-1.14,0-1.08,0h0c-5.3,0-8.65-.94-9.35-3s1.3-4.82,5.41-8.09l.06,0h0c-.24-1-.45-2.06-.63-3.08h0c-.32-1.77-.53-3.55-.67-5.32l.05,0h0l-.05,0c-20.42,10.54-32.68,20.34-30.73,25.87s17.62,5.56,40.15,1.05l2.39-.49c.59-.11,1.21-.25,1.81-.39,1.81-.38,3.66-.8,5.54-1.24l3.82-.92,4.22-1.08c1.83-.48,3.68-1,5.57-1.5l1-.27c1-.27,2-.56,3.06-.86l3.31-1,2.56-.77q5.43-1.66,11-3.51l2.57-.86.08,0c.7-.23,1.41-.47,2.11-.73s1.48-.5,2.22-.76,1.49-.51,2.21-.79l2.11-.74.08,0,2.54-.94q5.52-2,10.78-4.11l2.48-1,3.2-1.29c1-.41,2-.82,2.93-1.24l.94-.4c1.81-.76,3.56-1.53,5.29-2.3,1.34-.6,2.67-1.19,4-1.79s2.4-1.11,3.57-1.65c1.75-.83,3.45-1.66,5.1-2.49.56-.27,1.12-.54,1.65-.81l2.17-1.11C755.91,796.45,768.17,786.65,766.23,781.11Zm-26.08,16.41-.68.42-.52.31-.31.18c5.85-3.82,9.11-7.69,8.17-10.41-.86-2.45-5-3.48-10.84-3.15-.21-.41-.42-.81-.63-1.2l-1.84.25,1.83-.26c7.48-.9,12.88,0,13.87,2.88S746.55,793.52,740.15,797.52Z"/><circle class="cls-1" cx="645.29" cy="798.23" r="0.83" transform="translate(-224.87 253.81) rotate(-19.02)"/><circle class="cls-1" cx="645.75" cy="796.54" r="0.42" transform="translate(-224.3 253.87) rotate(-19.02)"/><text class="cls-7" transform="translate(672.46 982.7)">Universe</text></g></g></svg>